<svg width="120" height="120" viewBox="0 0 120 120" fill="none" xmlns="http://www.w3.org/2000/svg">
  <!-- 背景圆 -->
  <circle cx="60" cy="60" r="55" fill="#fef3f2"/>
  
  <!-- 人物头部 -->
  <circle cx="60" cy="35" r="8" fill="#ef4444"/>
  
  <!-- 身体核心 -->
  <rect x="50" y="45" width="20" height="15" rx="3" fill="#ef4444"/>
  <rect x="50" y="62" width="20" height="15" rx="3" fill="#ef4444"/>
  
  <!-- 腹肌线条 -->
  <line x1="60" y1="60" x2="60" y2="62" stroke="white" stroke-width="2"/>
  <line x1="55" y1="52" x2="55" y2="56" stroke="white" stroke-width="1.5"/>
  <line x1="65" y1="52" x2="65" y2="56" stroke="white" stroke-width="1.5"/>
  <line x1="55" y1="68" x2="55" y2="72" stroke="white" stroke-width="1.5"/>
  <line x1="65" y1="68" x2="65" y2="72" stroke="white" stroke-width="1.5"/>
  
  <!-- 手臂 -->
  <path d="M50 50L40 55L38 65" stroke="#ef4444" stroke-width="4" stroke-linecap="round"/>
  <path d="M70 50L80 55L82 65" stroke="#ef4444" stroke-width="4" stroke-linecap="round"/>
  
  <!-- 腿部 -->
  <path d="M55 77L52 90" stroke="#ef4444" stroke-width="4" stroke-linecap="round"/>
  <path d="M65 77L68 90" stroke="#ef4444" stroke-width="4" stroke-linecap="round"/>
  
  <!-- 装饰元素 -->
  <circle cx="30" cy="40" r="3" fill="#fca5a5" opacity="0.6"/>
  <circle cx="90" cy="40" r="3" fill="#fca5a5" opacity="0.6"/>
  <circle cx="25" cy="70" r="2" fill="#fca5a5" opacity="0.4"/>
  <circle cx="95" cy="70" r="2" fill="#fca5a5" opacity="0.4"/>
</svg>
